<svg xmlns="http://www.w3.org/2000/svg" xmlns:xlink="http://www.w3.org/1999/xlink" viewBox="0 0 371 371">
  <defs>
    <style>
      .cls-1 {
        fill: url(#linear-gradient);
      }
    </style>
    <linearGradient id="linear-gradient" x1="0.108" x2="1" y2="1.064" gradientUnits="objectBoundingBox">
      <stop offset="0" stop-color="#fff" stop-opacity="0"/>
      <stop offset="1" stop-color="#fff" stop-opacity="0.071"/>
    </linearGradient>
  </defs>
  <path id="hiasan_about" data-name="hiasan about" class="cls-1" d="M281.556,305.018a23.463,23.463,0,1,1,23.463,23.463A23.462,23.462,0,0,1,281.556,305.018Zm-93.852,0a23.463,23.463,0,1,1,23.463,23.463A23.463,23.463,0,0,1,187.7,305.018Zm-93.852,0a23.463,23.463,0,1,1,23.463,23.463A23.463,23.463,0,0,1,93.852,305.018ZM0,305.018a23.463,23.463,0,1,1,23.463,23.463A23.463,23.463,0,0,1,0,305.018Zm281.556-93.852a23.463,23.463,0,1,1,23.463,23.463A23.463,23.463,0,0,1,281.556,211.167Zm-93.852,0a23.463,23.463,0,1,1,23.463,23.463A23.463,23.463,0,0,1,187.7,211.167Zm-93.852,0a23.463,23.463,0,1,1,23.463,23.463A23.463,23.463,0,0,1,93.852,211.167ZM0,211.167A23.463,23.463,0,1,1,23.463,234.63,23.463,23.463,0,0,1,0,211.167Zm281.556-93.852a23.463,23.463,0,1,1,23.463,23.463A23.463,23.463,0,0,1,281.556,117.315Zm-93.852,0a23.463,23.463,0,1,1,23.463,23.463A23.463,23.463,0,0,1,187.7,117.315Zm-93.852,0a23.463,23.463,0,1,1,23.463,23.463A23.463,23.463,0,0,1,93.852,117.315ZM0,117.315a23.463,23.463,0,1,1,23.463,23.463A23.463,23.463,0,0,1,0,117.315ZM281.556,23.463a23.463,23.463,0,1,1,23.463,23.463A23.463,23.463,0,0,1,281.556,23.463Zm-93.852,0a23.463,23.463,0,1,1,23.463,23.463A23.463,23.463,0,0,1,187.7,23.463Zm-93.852,0a23.463,23.463,0,1,1,23.463,23.463A23.463,23.463,0,0,1,93.852,23.463ZM0,23.463A23.463,23.463,0,1,1,23.463,46.926,23.463,23.463,0,0,1,0,23.463Z" transform="translate(0 45.716) rotate(-8)"/>
</svg>
