<svg xmlns="http://www.w3.org/2000/svg" viewBox="0 0 131.944 32.352">
  <defs>
    <style>
      .cls-1 {
        fill: #fff;
        stroke: rgba(0,0,0,0);
      }
    </style>
  </defs>
  <path id="Union_3" data-name="Union 3" class="cls-1" d="M-1687.734-163.814a3.8,3.8,0,0,1-1.254-2.882,3.915,3.915,0,0,1,1.254-2.948,4.531,4.531,0,0,1,3.234-1.188,4.472,4.472,0,0,1,3.191,1.188,3.912,3.912,0,0,1,1.254,2.948,3.791,3.791,0,0,1-1.254,2.882,4.52,4.52,0,0,1-3.191,1.166A4.58,4.58,0,0,1-1687.734-163.814ZM-1702.1-163h-9.415l-4.612-13h7.536l1.784,5.432,1.794-5.432h7.526l-4.612,13Zm-22.924,0h-18.92v-13h17.6v.2h-10.076v6.776h11.4V-163h0Zm-50.908,0v-13h7.524v6.488h3.564a9.119,9.119,0,0,0,6.644-2.332,7.821,7.821,0,0,0,2.151-4.156h7.726a15.285,15.285,0,0,1-1.847,5.608,13.812,13.812,0,0,1-5.676,5.456A18.067,18.067,0,0,1-1764.36-163Zm-16.467,0v-6.2h6.2v-5.27l6.2-5.193V-163Zm-18.6,0v-6.2l17.344-14.616,4.821-4.062h-6.665V-194h15.422v6.122l-22.165,18.678h6.665v6.2Zm0-31h12.323v6.122h-6.123v5.27l-6.2,5.271Zm42.591,14h-7.523v-13.888h11.572a18.049,18.049,0,0,1,8.536,1.936,13.894,13.894,0,0,1,5.655,5.433,15.465,15.465,0,0,1,1.941,6.518h-7.682a8.33,8.33,0,0,0-2.29-5.089,9.023,9.023,0,0,0-6.644-2.376h-3.564V-180h0Zm72.338,0h-7.623l4.585-13.888h7.964L-1696.07-180Zm-13.835,0h-7.64l-4.927-13.888h8.008L-1709.9-180h0Zm-16.439,0h-17.6v-13.888h18.921v6.027h-11.4v6.249h10.076V-180h0Z" transform="translate(1811.5 194.5)"/>
</svg>
